<svg xmlns="http://www.w3.org/2000/svg" width="11" height="12" viewBox="0 0 11 12">
  <path id="Phone" d="M2.491,0c.623,0,.83.606,1.245,1.011.415.606,1.245,1.617.415,2.426-.208.4-.83.606-1.038,1.011a1.686,1.686,0,0,0,0,1.415A7.682,7.682,0,0,0,5.189,8.288c.415.2.83.606,1.245.606s.83-.606,1.245-1.011c1.038-.809,2.075.2,2.7.809A1.214,1.214,0,0,1,11,9.906c0,.4-.623.809-1.038,1.213a3.8,3.8,0,0,1-3.321.809A25.184,25.184,0,0,1,3.736,9.906,9,9,0,0,1,1.245,6.873a5.034,5.034,0,0,1-.83-1.415A5.773,5.773,0,0,1,0,3.639H0A3.941,3.941,0,0,1,1.245.809C1.66.4,2.075,0,2.491,0Z" fill="#204640"/>
</svg>
